<svg id="패스_412" data-name="패스 412" xmlns="http://www.w3.org/2000/svg" width="15.284" height="16.919" viewBox="0 0 15.284 16.919">
  <path id="패스_412-2" data-name="패스 412" d="M522.007,3770.636a2.478,2.478,0,0,0-1.667.654l-6.054-3.523a2.343,2.343,0,0,0,0-1.189l5.986-3.49a2.541,2.541,0,0,0,4.279-1.853v-.007a2.546,2.546,0,0,0-2.541-2.548H522a2.543,2.543,0,0,0-2.547,2.541v.007a2.69,2.69,0,0,0,.077.595l-5.986,3.49a2.541,2.541,0,0,0-4.279,1.853v.006a2.544,2.544,0,0,0,2.541,2.548h.007a2.532,2.532,0,0,0,1.732-.688l6.045,3.533a2.342,2.342,0,0,0-.068.556,2.48,2.48,0,1,0,2.483-2.483Z" transform="translate(-509.267 -3758.68)" fill="#767676"/>
</svg>
