<svg id="구성_요소_8_1" data-name="구성 요소 8 – 1" xmlns="http://www.w3.org/2000/svg" width="241.956" height="41.473" viewBox="0 0 241.956 41.473">
  <g id="그룹_1403" data-name="그룹 1403" transform="translate(51.275 11.314)">
    <path id="패스_2252" data-name="패스 2252" d="M195.863,324.516h-4.922v-18.2h8.328a7.131,7.131,0,0,1,2.661.485,5.971,5.971,0,0,1,2.076,1.355,6.231,6.231,0,0,1,1.342,2.064,6.931,6.931,0,0,1,.485,2.635,6.905,6.905,0,0,1-.721,3.058,6.321,6.321,0,0,1-.821,1.255,4.545,4.545,0,0,1-1.068.933.687.687,0,0,0-.261.36.449.449,0,0,0,.087.411q.946,1.244,1.989,2.56t1.865,2.411c.1.133.519.671.519.671h-5.391a1.242,1.242,0,0,1-.535-.136,1.156,1.156,0,0,1-.435-.336q-.791-1.044-1.572-2.113t-1.547-2.162a1.3,1.3,0,0,0-.94-.473h-.545a.594.594,0,0,0-.594.6v4.624Zm0-9.8h3.216a1.856,1.856,0,0,0,.618-.112,1.8,1.8,0,0,0,.6-.347,1.87,1.87,0,0,0,.445-.585,1.821,1.821,0,0,0,.174-.82,2.409,2.409,0,0,0-.087-.584,2.132,2.132,0,0,0-.3-.647,1.768,1.768,0,0,0-.569-.522,1.718,1.718,0,0,0-.879-.212h-3.216v3.829Z" transform="translate(-190.941 -305.995)" fill="#dc000f"/>
    <path id="패스_2253" data-name="패스 2253" d="M231.269,311.488v1.642H238.6a.594.594,0,0,1,.6.6v3.431a.594.594,0,0,1-.6.6h-7.333v2.139H239.6a.594.594,0,0,1,.6.6v4.027H226.346v-18.2h13.847V310.3a.593.593,0,0,1-.6.6h-8.328v.6Z" transform="translate(-202.186 -305.995)" fill="#dc000f"/>
    <path id="패스_2254" data-name="패스 2254" d="M264.859,306.9a.924.924,0,0,1,.336-.386.887.887,0,0,1,.51-.161h3.48a.85.85,0,0,1,.484.161.925.925,0,0,1,.336.386l7.26,16.907.306.72h-5.129a.874.874,0,0,1-.509-.162,1.122,1.122,0,0,1-.36-.386l-.672-1.491a1.143,1.143,0,0,0-.36-.386.848.848,0,0,0-.484-.162h-5.247a.883.883,0,0,0-.51.162.921.921,0,0,0-.336.386l-.7,1.491a.92.92,0,0,1-.336.386.843.843,0,0,1-.485.162h-5.157l.36-.8Zm1.467,10.814h2.213a.406.406,0,0,0,.36-.161.345.345,0,0,0-.012-.386q-.251-.621-.6-1.454c-.233-.555-.448-1.073-.648-1.554-.066-.15-.14-.224-.224-.224s-.158.074-.224.224l-1.242,3.008a.394.394,0,0,0,0,.386.4.4,0,0,0,.373.161" transform="translate(-212.015 -306.006)" fill="#dc000f"/>
    <path id="패스_2255" data-name="패스 2255" d="M311.922,320.539v3.978h-13.6v-18.2h4.326a.6.6,0,0,1,.6.6v12.43a.6.6,0,0,0,.162.422.565.565,0,0,0,.435.175h7.483a.594.594,0,0,1,.6.6" transform="translate(-225.048 -305.995)" fill="#dc000f"/>
    <path id="패스_2256" data-name="패스 2256" d="M346.873,306.914v17.6h-4.326a.568.568,0,0,1-.435-.174.6.6,0,0,1-.161-.423V318.6a.58.58,0,0,0-.173-.422.574.574,0,0,0-.421-.175h-5.1a.563.563,0,0,0-.433.175.6.6,0,0,0-.161.422v5.32a.574.574,0,0,1-.175.423.581.581,0,0,1-.424.174h-4.323v-18.2h4.323a.579.579,0,0,1,.424.174.57.57,0,0,1,.175.421v5.87a.6.6,0,0,0,.161.422.562.562,0,0,0,.433.173h5.1a.592.592,0,0,0,.594-.6v-5.87a.594.594,0,0,1,.161-.421.565.565,0,0,1,.435-.174h4.326v.6Z" transform="translate(-235.344 -305.995)" fill="#dc000f"/>
    <path id="패스_2257" data-name="패스 2257" d="M366.623,315.266a9.066,9.066,0,0,1,.745-3.655,9.76,9.76,0,0,1,2.014-2.995,9.465,9.465,0,0,1,2.984-2.026,9.318,9.318,0,0,1,7.309,0,9.545,9.545,0,0,1,5.022,5.021,9.32,9.32,0,0,1,0,7.31,9.547,9.547,0,0,1-5.022,5.022,9.334,9.334,0,0,1-7.309,0,9.467,9.467,0,0,1-2.984-2.027,9.746,9.746,0,0,1-2.014-3,9.059,9.059,0,0,1-.745-3.655m4.922,0a4.651,4.651,0,0,0,.348,1.79,4.853,4.853,0,0,0,.957,1.492,4.658,4.658,0,0,0,1.43,1.032,4.118,4.118,0,0,0,3.479,0,4.8,4.8,0,0,0,1.444-1.032,4.726,4.726,0,0,0,.968-1.492,4.743,4.743,0,0,0,0-3.567A4.55,4.55,0,0,0,379.2,312a4.948,4.948,0,0,0-1.444-1.019,4.118,4.118,0,0,0-3.479,0A4.8,4.8,0,0,0,372.85,312a4.782,4.782,0,0,0-1.3,3.269" transform="translate(-246.742 -305.844)" fill="#dc000f"/>
    <path id="패스_2258" data-name="패스 2258" d="M426.906,306.952v17.576h-4.328a.591.591,0,0,1-.593-.6v-8a.238.238,0,0,0-.226-.274.393.393,0,0,0-.374.174l-4.186,6.736a.434.434,0,0,1-.4.2.5.5,0,0,1-.424-.2l-4.186-6.736a.342.342,0,0,0-.349-.174.237.237,0,0,0-.224.274v8a.594.594,0,0,1-.593.6H406.7V306.354h4.056a1.082,1.082,0,0,1,.519.149,1.062,1.062,0,0,1,.4.348l4.783,7.011a.434.434,0,0,0,.349.2.374.374,0,0,0,.325-.2l4.783-7.011a1.319,1.319,0,0,1,.421-.348,1.091,1.091,0,0,1,.52-.149h4.057v.6Z" transform="translate(-259.47 -306.006)" fill="#dc000f"/>
    <path id="패스_2259" data-name="패스 2259" d="M455.007,311.488v1.642h7.333a.593.593,0,0,1,.6.6v3.431a.573.573,0,0,1-.173.422.579.579,0,0,1-.424.174h-7.333v2.139h8.328a.6.6,0,0,1,.6.6v4.027H450.084v-18.2h13.847V310.3a.594.594,0,0,1-.6.6h-8.328v.6Z" transform="translate(-273.251 -305.995)" fill="#dc000f"/>
  </g>
  <g id="그룹_1404" data-name="그룹 1404">
    <path id="패스_2260" data-name="패스 2260" d="M115.8,330.737l12.26-11.061h24.9V299.483l-18.338-10.219-18.7,10.219s0,31.132-.12,31.254" transform="translate(-115.797 -289.264)" fill="#dc000c"/>
    <path id="패스_2261" data-name="패스 2261" d="M143.12,320.124h-5.014V301.583h8.485a7.208,7.208,0,0,1,2.709.495,6.082,6.082,0,0,1,2.116,1.379,6.358,6.358,0,0,1,1.367,2.1,7.079,7.079,0,0,1,.494,2.684,6.982,6.982,0,0,1-.734,3.115,6.364,6.364,0,0,1-.835,1.279,4.682,4.682,0,0,1-1.088.951.706.706,0,0,0-.268.366.461.461,0,0,0,.089.419q.964,1.267,2.027,2.608c.708.9,1.343,1.716,1.9,2.458.1.134.53.684.53.684H149.4a1.265,1.265,0,0,1-.548-.139,1.17,1.17,0,0,1-.44-.344q-.81-1.061-1.6-2.152t-1.576-2.2a1.158,1.158,0,0,0-.429-.342,1.179,1.179,0,0,0-.53-.14h-.553a.6.6,0,0,0-.606.608v4.711Zm0-9.98H146.4a1.905,1.905,0,0,0,.63-.115,1.792,1.792,0,0,0,.6-.354,1.9,1.9,0,0,0,.455-.594,1.868,1.868,0,0,0,.177-.837,2.474,2.474,0,0,0-.087-.6,2.147,2.147,0,0,0-.305-.659,1.774,1.774,0,0,0-.579-.532,1.745,1.745,0,0,0-.9-.215H143.12v3.9Z" transform="translate(-122.883 -293.177)" fill="#fff"/>
  </g>
</svg>
