<svg id="구성_요소_8_1" data-name="구성 요소 8 – 1" xmlns="http://www.w3.org/2000/svg" width="143.944" height="14.226" viewBox="0 0 143.944 14.226">
  <path id="패스_2237" data-name="패스 2237" d="M75.049,327.471H71.333V313.733H77.62a5.372,5.372,0,0,1,2.008.366,4.5,4.5,0,0,1,1.567,1.023,4.721,4.721,0,0,1,1.014,1.558,5.242,5.242,0,0,1,.366,1.989,5.206,5.206,0,0,1-.544,2.309,4.791,4.791,0,0,1-.619.947,3.439,3.439,0,0,1-.806.7.519.519,0,0,0-.2.272.337.337,0,0,0,.065.31q.713.94,1.5,1.933t1.408,1.821c.075.1.392.507.392.507H79.7a.942.942,0,0,1-.4-.1.873.873,0,0,1-.328-.254q-.6-.788-1.186-1.595t-1.168-1.633a.983.983,0,0,0-.709-.356H75.5a.447.447,0,0,0-.448.45v3.491Zm0-7.395h2.428a1.417,1.417,0,0,0,.467-.085,1.356,1.356,0,0,0,.448-.263,1.408,1.408,0,0,0,.336-.441,1.371,1.371,0,0,0,.131-.619,1.809,1.809,0,0,0-.065-.441,1.588,1.588,0,0,0-.224-.488,1.328,1.328,0,0,0-.43-.394,1.293,1.293,0,0,0-.663-.159H75.049v2.89Z" transform="translate(-71.333 -313.488)" fill="#e3001b"/>
  <path id="패스_2238" data-name="패스 2238" d="M132.489,317.636v1.239h5.536a.449.449,0,0,1,.451.45v2.59a.448.448,0,0,1-.451.45h-5.536v1.614h6.287a.448.448,0,0,1,.45.45v3.04H128.773V313.733h10.453v3a.449.449,0,0,1-.45.45h-6.287v.45Z" transform="translate(-110.535 -313.488)" fill="#e3001b"/>
  <path id="패스_2239" data-name="패스 2239" d="M184.689,314.2a.7.7,0,0,1,.254-.291.667.667,0,0,1,.385-.122h2.627a.64.64,0,0,1,.366.122.7.7,0,0,1,.254.291l5.48,12.762.232.544h-3.872a.662.662,0,0,1-.385-.122.852.852,0,0,1-.272-.291l-.507-1.126a.86.86,0,0,0-.272-.291.643.643,0,0,0-.366-.122h-3.96a.667.667,0,0,0-.385.122.7.7,0,0,0-.254.291l-.525,1.126a.7.7,0,0,1-.254.291.636.636,0,0,1-.366.122h-3.894l.271-.6Zm1.108,8.164h1.67a.307.307,0,0,0,.272-.122.261.261,0,0,0-.009-.291q-.188-.469-.451-1.1t-.488-1.173c-.05-.113-.106-.169-.169-.169s-.119.056-.169.169l-.938,2.271a.3.3,0,0,0,0,.291A.3.3,0,0,0,185.8,322.368Z" transform="translate(-144.797 -313.528)" fill="#e3001b"/>
  <path id="패스_2240" data-name="패스 2240" d="M255.812,324.468v3H245.546V313.733h3.266a.449.449,0,0,1,.45.45v9.384a.452.452,0,0,0,.122.319.424.424,0,0,0,.329.131h5.649a.449.449,0,0,1,.451.451Z" transform="translate(-190.231 -313.488)" fill="#e3001b"/>
  <path id="패스_2241" data-name="패스 2241" d="M310.315,314.183v13.288h-3.266a.426.426,0,0,1-.328-.131.45.45,0,0,1-.122-.319V323a.438.438,0,0,0-.131-.319.433.433,0,0,0-.318-.132H302.3a.424.424,0,0,0-.327.132.453.453,0,0,0-.122.319v4.016a.451.451,0,0,1-.453.451h-3.263V313.733H301.4a.438.438,0,0,1,.32.131.433.433,0,0,1,.133.318v4.432a.449.449,0,0,0,.122.318.424.424,0,0,0,.327.131h3.851a.447.447,0,0,0,.449-.449v-4.432a.448.448,0,0,1,.122-.318.426.426,0,0,1,.328-.131h3.266v.45Z" transform="translate(-226.122 -313.488)" fill="#e3001b"/>
  <path id="패스_2242" data-name="패스 2242" d="M356.354,320.077a6.855,6.855,0,0,1,.563-2.759,7.349,7.349,0,0,1,1.521-2.261,7.137,7.137,0,0,1,2.252-1.529,7.039,7.039,0,0,1,5.518,0,7.2,7.2,0,0,1,3.791,3.79,7.039,7.039,0,0,1,0,5.518,7.2,7.2,0,0,1-3.791,3.791,7.046,7.046,0,0,1-5.518,0,7.149,7.149,0,0,1-2.252-1.53,7.353,7.353,0,0,1-1.521-2.262A6.85,6.85,0,0,1,356.354,320.077Zm3.716,0a3.51,3.51,0,0,0,.263,1.351,3.649,3.649,0,0,0,.723,1.126,3.532,3.532,0,0,0,1.079.779,3.113,3.113,0,0,0,2.627,0,3.64,3.64,0,0,0,1.089-.779,3.567,3.567,0,0,0,.732-1.126,3.584,3.584,0,0,0,0-2.693,3.436,3.436,0,0,0-.732-1.126,3.732,3.732,0,0,0-1.089-.77,3.113,3.113,0,0,0-2.627,0,3.619,3.619,0,0,0-1.079.77,3.608,3.608,0,0,0-.985,2.468Z" transform="translate(-265.856 -312.964)" fill="#e3001b"/>
  <path id="패스_2243" data-name="패스 2243" d="M436.623,314.242V327.51h-3.268a.433.433,0,0,1-.318-.131.437.437,0,0,1-.13-.319v-6.043a.179.179,0,0,0-.17-.206.3.3,0,0,0-.282.131l-3.16,5.086a.329.329,0,0,1-.3.15.375.375,0,0,1-.319-.15l-3.16-5.086a.259.259,0,0,0-.264-.131.179.179,0,0,0-.169.206v6.043a.447.447,0,0,1-.448.451h-3.268V313.791h3.063a.818.818,0,0,1,.392.113.785.785,0,0,1,.3.263l3.612,5.293a.326.326,0,0,0,.263.15.281.281,0,0,0,.245-.15l3.612-5.293a.969.969,0,0,1,.318-.263.815.815,0,0,1,.392-.113h3.062v.451Z" transform="translate(-310.226 -313.528)" fill="#e3001b"/>
  <path id="패스_2244" data-name="패스 2244" d="M495.475,317.636v1.239h5.536a.449.449,0,0,1,.451.45v2.59a.448.448,0,0,1-.451.45h-5.536v1.614h6.287a.448.448,0,0,1,.45.45v3.04H491.758V313.733h10.454v3a.448.448,0,0,1-.45.45h-6.287v.45Z" transform="translate(-358.268 -313.488)" fill="#e3001b"/>
</svg>
